<mxfile host="Electron" modified="2023-10-19T12:12:04.462Z" agent="Mozilla/5.0 (Windows NT 10.0; Win64; x64) AppleWebKit/537.36 (KHTML, like Gecko) draw.io/22.0.3 Chrome/114.0.5735.289 Electron/25.8.4 Safari/537.36" etag="sMgG_ViUzW9R9aDiBmF8" version="22.0.3" type="device">
  <diagram name="Page-1" id="5987fedf-629e-85c4-6858-42fee31821dd">
    <mxGraphModel dx="840" dy="503" grid="1" gridSize="10" guides="1" tooltips="1" connect="1" arrows="1" fold="1" page="1" pageScale="1.5" pageWidth="1169" pageHeight="826" background="none" math="0" shadow="0">
      <root>
        <mxCell id="0" style=";html=1;" />
        <mxCell id="1" style=";html=1;" parent="0" />
        <mxCell id="kTQ5064xi_iTw3EoHZO--16" style="edgeStyle=orthogonalEdgeStyle;rounded=0;orthogonalLoop=1;jettySize=auto;html=1;fillColor=#1ba1e2;strokeColor=#006EAF;" parent="1" source="kTQ5064xi_iTw3EoHZO--8" target="kTQ5064xi_iTw3EoHZO--9" edge="1">
          <mxGeometry relative="1" as="geometry">
            <Array as="points">
              <mxPoint x="1130" y="440" />
              <mxPoint x="1130" y="440" />
            </Array>
          </mxGeometry>
        </mxCell>
        <mxCell id="kTQ5064xi_iTw3EoHZO--31" value="Firts run" style="edgeLabel;html=1;align=center;verticalAlign=middle;resizable=0;points=[];" parent="kTQ5064xi_iTw3EoHZO--16" vertex="1" connectable="0">
          <mxGeometry x="0.0138" relative="1" as="geometry">
            <mxPoint as="offset" />
          </mxGeometry>
        </mxCell>
        <mxCell id="kTQ5064xi_iTw3EoHZO--8" value="Start" style="rounded=1;whiteSpace=wrap;html=1;strokeColor=#37ff00;" parent="1" vertex="1">
          <mxGeometry x="1070" y="360" width="120" height="60" as="geometry" />
        </mxCell>
        <mxCell id="kTQ5064xi_iTw3EoHZO--17" style="edgeStyle=orthogonalEdgeStyle;rounded=0;orthogonalLoop=1;jettySize=auto;html=1;fillColor=#1ba1e2;strokeColor=#006EAF;" parent="1" source="kTQ5064xi_iTw3EoHZO--9" target="kTQ5064xi_iTw3EoHZO--13" edge="1">
          <mxGeometry relative="1" as="geometry" />
        </mxCell>
        <mxCell id="kTQ5064xi_iTw3EoHZO--33" value="Save" style="edgeLabel;html=1;align=center;verticalAlign=middle;resizable=0;points=[];" parent="kTQ5064xi_iTw3EoHZO--17" vertex="1" connectable="0">
          <mxGeometry x="-0.1103" relative="1" as="geometry">
            <mxPoint as="offset" />
          </mxGeometry>
        </mxCell>
        <mxCell id="kTQ5064xi_iTw3EoHZO--9" value="Server Configuration&amp;nbsp;" style="rounded=1;whiteSpace=wrap;html=1;" parent="1" vertex="1">
          <mxGeometry x="1070" y="470" width="120" height="60" as="geometry" />
        </mxCell>
        <mxCell id="kTQ5064xi_iTw3EoHZO--18" style="edgeStyle=orthogonalEdgeStyle;rounded=0;orthogonalLoop=1;jettySize=auto;html=1;entryX=0.5;entryY=0;entryDx=0;entryDy=0;fillColor=#1ba1e2;strokeColor=#006EAF;" parent="1" source="kTQ5064xi_iTw3EoHZO--13" target="kTQ5064xi_iTw3EoHZO--15" edge="1">
          <mxGeometry relative="1" as="geometry" />
        </mxCell>
        <mxCell id="kTQ5064xi_iTw3EoHZO--38" value="Vertical 3 dots" style="edgeLabel;html=1;align=center;verticalAlign=middle;resizable=0;points=[];" parent="kTQ5064xi_iTw3EoHZO--18" vertex="1" connectable="0">
          <mxGeometry x="-0.1793" relative="1" as="geometry">
            <mxPoint as="offset" />
          </mxGeometry>
        </mxCell>
        <mxCell id="kTQ5064xi_iTw3EoHZO--13" value="Main menu" style="rounded=1;whiteSpace=wrap;html=1;" parent="1" vertex="1">
          <mxGeometry x="1070" y="580" width="120" height="60" as="geometry" />
        </mxCell>
        <mxCell id="kTQ5064xi_iTw3EoHZO--20" style="edgeStyle=orthogonalEdgeStyle;rounded=0;orthogonalLoop=1;jettySize=auto;html=1;entryX=0.5;entryY=0;entryDx=0;entryDy=0;fillColor=#1ba1e2;strokeColor=#006EAF;" parent="1" source="kTQ5064xi_iTw3EoHZO--15" target="kTQ5064xi_iTw3EoHZO--19" edge="1">
          <mxGeometry relative="1" as="geometry" />
        </mxCell>
        <mxCell id="kTQ5064xi_iTw3EoHZO--39" value="Report a bug" style="edgeLabel;html=1;align=center;verticalAlign=middle;resizable=0;points=[];" parent="kTQ5064xi_iTw3EoHZO--20" vertex="1" connectable="0">
          <mxGeometry y="2" relative="1" as="geometry">
            <mxPoint as="offset" />
          </mxGeometry>
        </mxCell>
        <mxCell id="kTQ5064xi_iTw3EoHZO--15" value="More options" style="rounded=1;whiteSpace=wrap;html=1;" parent="1" vertex="1">
          <mxGeometry x="1070" y="690" width="120" height="60" as="geometry" />
        </mxCell>
        <mxCell id="kTQ5064xi_iTw3EoHZO--19" value="Bug report" style="rounded=1;whiteSpace=wrap;html=1;" parent="1" vertex="1">
          <mxGeometry x="1070" y="800" width="120" height="60" as="geometry" />
        </mxCell>
        <mxCell id="kTQ5064xi_iTw3EoHZO--21" value="" style="curved=1;endArrow=classic;html=1;rounded=0;exitX=0.462;exitY=1.009;exitDx=0;exitDy=0;exitPerimeter=0;entryX=1;entryY=0.75;entryDx=0;entryDy=0;fillColor=#1ba1e2;strokeColor=#006EAF;" parent="1" source="kTQ5064xi_iTw3EoHZO--19" target="kTQ5064xi_iTw3EoHZO--15" edge="1">
          <mxGeometry width="50" height="50" relative="1" as="geometry">
            <mxPoint x="1210" y="900" as="sourcePoint" />
            <mxPoint x="1300" y="740" as="targetPoint" />
            <Array as="points">
              <mxPoint x="1180" y="910" />
              <mxPoint x="1260" y="850" />
              <mxPoint x="1260" y="750" />
            </Array>
          </mxGeometry>
        </mxCell>
        <mxCell id="kTQ5064xi_iTw3EoHZO--25" value="Esc&lt;br style=&quot;border-color: var(--border-color);&quot;&gt;Back arrow" style="edgeLabel;html=1;align=center;verticalAlign=middle;resizable=0;points=[];" parent="kTQ5064xi_iTw3EoHZO--21" vertex="1" connectable="0">
          <mxGeometry x="0.3593" y="1" relative="1" as="geometry">
            <mxPoint as="offset" />
          </mxGeometry>
        </mxCell>
        <mxCell id="kTQ5064xi_iTw3EoHZO--23" value="" style="curved=1;endArrow=classic;html=1;rounded=0;exitX=1;exitY=0.25;exitDx=0;exitDy=0;entryX=1;entryY=0.75;entryDx=0;entryDy=0;fillColor=#1ba1e2;strokeColor=#006EAF;" parent="1" source="kTQ5064xi_iTw3EoHZO--15" target="kTQ5064xi_iTw3EoHZO--13" edge="1">
          <mxGeometry width="50" height="50" relative="1" as="geometry">
            <mxPoint x="1190" y="720" as="sourcePoint" />
            <mxPoint x="1190" y="610" as="targetPoint" />
            <Array as="points">
              <mxPoint x="1270" y="720" />
              <mxPoint x="1285" y="630" />
            </Array>
          </mxGeometry>
        </mxCell>
        <mxCell id="kTQ5064xi_iTw3EoHZO--28" value="" style="curved=1;endArrow=classic;html=1;rounded=0;fillColor=#1ba1e2;strokeColor=#006EAF;entryX=1;entryY=0.25;entryDx=0;entryDy=0;dashed=1;" parent="1" target="kTQ5064xi_iTw3EoHZO--13" edge="1">
          <mxGeometry width="50" height="50" relative="1" as="geometry">
            <mxPoint x="1130" y="420" as="sourcePoint" />
            <mxPoint x="1190" y="610" as="targetPoint" />
            <Array as="points">
              <mxPoint x="1270" y="470" />
              <mxPoint x="1310" y="550" />
            </Array>
          </mxGeometry>
        </mxCell>
        <mxCell id="kTQ5064xi_iTw3EoHZO--32" value="Nth run" style="edgeLabel;html=1;align=center;verticalAlign=middle;resizable=0;points=[];" parent="kTQ5064xi_iTw3EoHZO--28" vertex="1" connectable="0">
          <mxGeometry x="-0.3006" y="-7" relative="1" as="geometry">
            <mxPoint x="40" y="50" as="offset" />
          </mxGeometry>
        </mxCell>
        <mxCell id="kTQ5064xi_iTw3EoHZO--35" value="" style="curved=1;endArrow=classic;html=1;rounded=0;exitX=0;exitY=0.5;exitDx=0;exitDy=0;entryX=0;entryY=0.5;entryDx=0;entryDy=0;fillColor=#1ba1e2;strokeColor=#006EAF;startArrow=classicThin;startFill=1;" parent="1" source="kTQ5064xi_iTw3EoHZO--15" target="kTQ5064xi_iTw3EoHZO--9" edge="1">
          <mxGeometry width="50" height="50" relative="1" as="geometry">
            <mxPoint x="770" y="720" as="sourcePoint" />
            <mxPoint x="820" y="670" as="targetPoint" />
            <Array as="points">
              <mxPoint x="920" y="740" />
              <mxPoint x="930" y="520" />
            </Array>
          </mxGeometry>
        </mxCell>
        <mxCell id="kTQ5064xi_iTw3EoHZO--37" value="Reconfigure&lt;br&gt;server" style="edgeLabel;html=1;align=center;verticalAlign=middle;resizable=0;points=[];" parent="kTQ5064xi_iTw3EoHZO--35" vertex="1" connectable="0">
          <mxGeometry x="0.3075" y="-20" relative="1" as="geometry">
            <mxPoint as="offset" />
          </mxGeometry>
        </mxCell>
        <mxCell id="kTQ5064xi_iTw3EoHZO--40" value="Esc&lt;br&gt;Back arrow" style="edgeLabel;html=1;align=center;verticalAlign=middle;resizable=0;points=[];" parent="kTQ5064xi_iTw3EoHZO--35" vertex="1" connectable="0">
          <mxGeometry x="-0.5761" y="-22" relative="1" as="geometry">
            <mxPoint x="-19" y="-23" as="offset" />
          </mxGeometry>
        </mxCell>
        <mxCell id="kTQ5064xi_iTw3EoHZO--42" value="Esc&lt;br&gt;Back arrow" style="edgeLabel;html=1;align=center;verticalAlign=middle;resizable=0;points=[];" parent="1" vertex="1" connectable="0">
          <mxGeometry x="1280.0027372560276" y="670.0042743052448" as="geometry" />
        </mxCell>
      </root>
    </mxGraphModel>
  </diagram>
</mxfile>
